<svg version="1.1" xmlns="http://www.w3.org/2000/svg" xmlns:xlink="http://www.w3.org/1999/xlink"  >
   <circle cx="100" cy="100" r="95" stroke="black" stroke-width="2" fill="lightblue" />
   <g>
		<text x="46%" y="15%" fill="white">12</text>
		<text x="85%" y="52%" fill="white">3</text>
		<text x="48%" y="90%" fill="white">6</text>
		<text x="10%" y="52%" fill="white">9</text>
   </g>
   <g>
      <line x1="5" y1="100" x2="15" y2="100" transform="rotate(0 100 100)" style="stroke:rgb(0,0,0);stroke-width:3" />
      <line x1="5" y1="100" x2="15" y2="100" transform="rotate(90 100 100)" style="stroke:rgb(0,0,0);stroke-width:3" />
      <line x1="5" y1="100" x2="15" y2="100" transform="rotate(180 100 100)" style="stroke:rgb(0,0,0);stroke-width:3" />
      <line x1="5" y1="100" x2="15" y2="100" transform="rotate(270 100 100)" style="stroke:rgb(0,0,0);stroke-width:3" />
      <line x1="5" y1="100" x2="15" y2="100" transform="rotate(30 100 100)" style="stroke:rgb(0,0,0);stroke-width:1" />
      <line x1="5" y1="100" x2="15" y2="100" transform="rotate(60 100 100)" style="stroke:rgb(0,0,0);stroke-width:1" />
      <line x1="5" y1="100" x2="15" y2="100" transform="rotate(120 100 100)" style="stroke:rgb(0,0,0);stroke-width:1" />
      <line x1="5" y1="100" x2="15" y2="100" transform="rotate(150 100 100)" style="stroke:rgb(0,0,0);stroke-width:1" />
      <line x1="5" y1="100" x2="15" y2="100" transform="rotate(210 100 100)" style="stroke:rgb(0,0,0);stroke-width:1" />
      <line x1="5" y1="100" x2="15" y2="100" transform="rotate(240 100 100)" style="stroke:rgb(0,0,0);stroke-width:1" />
      <line x1="5" y1="100" x2="15" y2="100" transform="rotate(300 100 100)" style="stroke:rgb(0,0,0);stroke-width:1" />
      <line x1="5" y1="100" x2="15" y2="100" transform="rotate(330 100 100)" style="stroke:rgb(0,0,0);stroke-width:1" />
   </g>

<g transform="translate(100,100)">
    <line id="hourhand" x1="0" y1="-10" x2="0" y2="65"  
          style="stroke:rgb(0,0,255);stroke-width:2" transform="rotate(0)" >
    </line>
    <line id="minutehand" x1="0" y1="-10" x2="0" y2="80"
           style="stroke:rgb(255,0,0);stroke-width:2" transform="rotate(0)" >
    </line>
    <line id="secondhand" x1="0" y1="-5" x2="0" y2="85"  
          style="stroke:rgb(0,255,0);stroke-width:2">
    </line>
   </g>
</svg> 